<svg xmlns="http://www.w3.org/2000/svg" xmlns:xlink="http://www.w3.org/1999/xlink" viewBox="0 0 175.53 155.81"><defs><linearGradient id="DDVX" x1="154.14" y1="295.15" x2="300.45" y2="92.01" gradientUnits="userSpaceOnUse"><stop offset="0" stop-color="#005c2b"/><stop offset="0.13" stop-color="#09622a"/><stop offset="0.33" stop-color="#217329"/><stop offset="0.59" stop-color="#498d27"/><stop offset="0.89" stop-color="#7fb223"/><stop offset="1" stop-color="#95c122"/></linearGradient><linearGradient id="New_Gradient_Swatch" x1="21.53" y1="124.08" x2="9.45" y2="87.56" gradientUnits="userSpaceOnUse"><stop offset="0" stop-color="#fff" stop-opacity="0"/><stop offset="0.1" stop-color="#e6ebee" stop-opacity="0.14"/><stop offset="0.4" stop-color="#a4b7c2" stop-opacity="0.51"/><stop offset="0.66" stop-color="#7491a2" stop-opacity="0.78"/><stop offset="0.87" stop-color="#57798e" stop-opacity="0.94"/><stop offset="1" stop-color="#4c7187"/></linearGradient><linearGradient id="linear-gradient" x1="232.6" y1="286.79" x2="269.95" y2="222.11" gradientUnits="userSpaceOnUse"><stop offset="0.3" stop-color="#0053a2"/><stop offset="0.4" stop-color="#0d5fa6"/><stop offset="0.6" stop-color="#307db0"/><stop offset="0.86" stop-color="#68afc0"/><stop offset="1" stop-color="#89ccc9"/></linearGradient><linearGradient id="linear-gradient-2" x1="198.19" y1="168.28" x2="205.48" y2="200.96" gradientUnits="userSpaceOnUse"><stop offset="0" stop-color="#831c8b"/><stop offset="0.14" stop-color="#88258f" stop-opacity="0.96"/><stop offset="0.32" stop-color="#953d9c" stop-opacity="0.85"/><stop offset="0.52" stop-color="#ac67b1" stop-opacity="0.67"/><stop offset="0.72" stop-color="#cba0ce" stop-opacity="0.42"/><stop offset="0.94" stop-color="#f3e9f4" stop-opacity="0.1"/><stop offset="1" stop-color="#fff" stop-opacity="0"/></linearGradient><linearGradient id="linear-gradient-3" x1="194.78" y1="223.17" x2="210.22" y2="253.13" gradientUnits="userSpaceOnUse"><stop offset="0" stop-color="#831c8b"/><stop offset="0.21" stop-color="#841d8b"/><stop offset="0.33" stop-color="#89268f" stop-opacity="0.96"/><stop offset="0.47" stop-color="#963e9c" stop-opacity="0.85"/><stop offset="0.62" stop-color="#ac67b1" stop-opacity="0.67"/><stop offset="0.78" stop-color="#cba0ce" stop-opacity="0.42"/><stop offset="0.95" stop-color="#f3e9f4" stop-opacity="0.1"/><stop offset="1" stop-color="#fff" stop-opacity="0"/></linearGradient><linearGradient id="DDVX-2" x1="254.15" y1="367.19" x2="400.47" y2="164.05" xlink:href="#DDVX"/><linearGradient id="New_Gradient_Swatch-2" x1="309.75" y1="298.8" x2="304.88" y2="277.8" xlink:href="#New_Gradient_Swatch"/><linearGradient id="linear-gradient-4" x1="204.13" y1="232.65" x2="260.43" y2="135.13" gradientUnits="userSpaceOnUse"><stop offset="0" stop-color="#ff603c"/><stop offset="1" stop-color="#fff753"/></linearGradient><linearGradient id="DDVX-3" x1="195.68" y1="286.45" x2="268.57" y2="185.25" xlink:href="#DDVX"/><linearGradient id="linear-gradient-5" x1="278.2" y1="244.7" x2="274.2" y2="227.42" xlink:href="#New_Gradient_Swatch"/></defs><g style="isolation:isolate"><g id="OBJECTS"><path d="M166.46,229.54V304.7h0A30.71,30.71,0,0,0,197.17,274V229.54Z" transform="translate(-166.42 -148.89)" fill="url(#DDVX)"/><rect x="0.04" y="80.65" width="30.71" height="49.77" fill="url(#New_Gradient_Swatch)" style="mix-blend-mode:multiply"/><path d="M342,279.59l-101.31.05c-19.29,0-36-6.4-49.71-19a69.34,69.34,0,0,1-10.28-11.75,58.56,58.56,0,0,1-8.79-19.37c-.39-1.56-.72-3.13-1-4.73a63,63,0,0,1-.85-10.55c0-.43,0-.86,0-1.29a27.87,27.87,0,0,1,24.28-14.16H204.8a29.41,29.41,0,0,0-4.2,15.45,30,30,0,0,0,1.84,10.55,28.87,28.87,0,0,0,2.27,4.73,37.43,37.43,0,0,0,7.47,8.88c7.91,7.08,17.2,10.49,28.46,10.49h69.15a24.52,24.52,0,0,1,21.08,12Z" transform="translate(-166.42 -148.89)" fill="url(#linear-gradient)"/><path d="M240.64,179.62c-11.26,0-20.55,3.41-28.46,10.49-7.78,6.91-11.58,14.81-11.58,24.15a30,30,0,0,0,1.84,10.55H170.88a63,63,0,0,1-.85-10.55v-.38c.1-19,15.84-34.26,34.86-34.26Z" transform="translate(-166.42 -148.89)" fill="url(#linear-gradient-2)" style="mix-blend-mode:multiply"/><path d="M235.88,248.68a40,40,0,0,1-23.7-10.26c-6.61-5.87-10.31-12.46-11.28-20-9.4,4.89-18.63,10.09-27.77,15.44a59.08,59.08,0,0,0,7.52,15.08,69.34,69.34,0,0,0,10.28,11.75,70.62,70.62,0,0,0,44.95,18.83Z" transform="translate(-166.42 -148.89)" fill="url(#linear-gradient-3)" style="mix-blend-mode:multiply"/><path d="M319.68,279.59H281.77a50.84,50.84,0,0,0,43.85,25.11h9C334.41,304.46,328.12,293.86,319.68,279.59Z" transform="translate(-166.42 -148.89)" fill="url(#DDVX-2)"/><path d="M319.68,279.59H281.77a50.84,50.84,0,0,0,43.85,25.11h9C334.41,304.46,328.12,293.86,319.68,279.59Z" transform="translate(-166.42 -148.89)" fill="url(#New_Gradient_Swatch-2)" style="mix-blend-mode:multiply"/><path d="M295.56,164.27a15.35,15.35,0,0,1-15.35,15.35H240.64a44.1,44.1,0,0,0-16,2.77,40.36,40.36,0,0,0-12.5,7.72,37.64,37.64,0,0,0-7.38,8.7H194.32A27.87,27.87,0,0,0,170,213a59.47,59.47,0,0,1,10.61-33.35,69.34,69.34,0,0,1,10.28-11.75c13.68-12.58,30.42-19,49.71-19l39.6.05a15.33,15.33,0,0,1,15.32,15.33Z" transform="translate(-166.42 -148.89)" fill="url(#linear-gradient-4)"/><path d="M301.49,248.91H263.74l-11.36-19.37H203.54a37.1,37.1,0,0,0-37.08,35.87V229.54c0-.85,0-1.71,0-2.57v-.3a27.91,27.91,0,0,1,27.9-27.86h40l-9.66-16.42a44.1,44.1,0,0,1,16-2.77h20.11l28.81,49h0S294.65,237.29,301.49,248.91Z" transform="translate(-166.42 -148.89)" fill="url(#DDVX-3)"/><path d="M301.49,248.91H263.74l-11.36-19.37,13.48-.33A40.32,40.32,0,0,1,301.49,248.91Z" transform="translate(-166.42 -148.89)" fill="url(#linear-gradient-5)" style="mix-blend-mode:multiply"/></g></g></svg>